<mxfile host="app.diagrams.net" modified="2023-08-20T18:16:59.661Z" agent="Mozilla/5.0 (Windows NT 10.0; Win64; x64) AppleWebKit/537.36 (KHTML, like Gecko) Chrome/115.0.0.0 Safari/537.36" version="21.6.8" etag="IdLHIhdYOt3ClFQFRqX3" type="github">
  <diagram name="Trang-1" id="P_qthDoXg-dxLnn_f87H">
    <mxGraphModel>
      <root>
        <mxCell id="0" />
        <mxCell id="1" parent="0" />
      </root>
    </mxGraphModel>
  </diagram>
</mxfile>
